<?xml version="1.0" encoding="utf-8"?>
<!-- Generator: Adobe Illustrator 24.0.3, SVG Export Plug-In . SVG Version: 6.00 Build 0)  -->
<svg version="1.1" id="Layer_1" xmlns="http://www.w3.org/2000/svg" xmlns:xlink="http://www.w3.org/1999/xlink" x="0px" y="0px"
	 viewBox="0 0 499 500" style="enable-background:new 0 0 499 500;" xml:space="preserve">
<style type="text/css">
	.st0{fill:#F9FAFB;stroke:#46B981;stroke-miterlimit:10;}
	.st1{fill:#0336FF;stroke:#0336FF;stroke-miterlimit:10;}
	.st2{fill:#EC1B69;stroke:#EC1B69;stroke-miterlimit:10;}
	.st3{fill:#F9FAFB;stroke:#EC1B69;stroke-miterlimit:10;}
	.st4{fill:#414141;}
	.st5{fill:#FFD65E;}
	.st6{fill:#333232;}
	.st7{fill:#F1CB5B;}
	.st8{fill:#323232;}
	.st9{fill:#FFD65F;}
	.st10{fill:#F2CB5B;}
	.st11{fill:#323131;}
	.st12{fill:#383838;}
	.st13{fill:#363636;}
	.st14{fill:#333332;}
	.st15{fill:#FBD653;}
	.st16{fill:#FCE05F;}
	.st17{fill:#FFDE80;}
</style>
<g>
	<path class="st0" d="M235.35,178.31c8.72,5.9,13.8,13.85,14.4,24.44c0.72,12.89-4.33,22.95-14.95,29.28
		c-10.34,6.16-20.77,5.32-30.51-1.65c-8.18-5.85-12.41-14.39-12.49-24.91c-0.15-18.63-0.07-37.26,0-55.89
		c0.01-1.77-0.35-2.28-2.09-2.27c-14.23,0.08-28.46,0.08-42.69,0c-1.69-0.01-2.1,0.46-2.17,2.24c-0.58,16.19-1.22,32.38-1.94,48.57
		c-0.64,14.46-1.05,28.92-1.93,43.37c-0.3,4.99-0.49,10.03-0.55,15.06c-0.16,12.65-0.86,25.29-1.37,37.94
		c-0.35,8.58-0.9,17.16-1.22,25.74c-0.17,4.56-0.47,9.15-0.52,13.74c-0.13,12.89-0.9,25.78-1.42,38.66
		c-0.72,17.8-1.32,35.6-2.26,53.39c-0.18,3.36-0.14,6.72,0.15,9.97c0.31,3.54,1.34,7.08,2.88,10.43
		c5.03,10.92,11.91,19.56,23.18,23.57c4.43,1.58,8.8,2.55,13.47,2.54c48.14-0.05,96.28-0.01,144.43-0.01c0.33,0,0.77,0.17,0.98-0.44
		c-6.12-6.23-11.48-13.17-15.95-20.86c-0.87-1.5-1.81-1.96-3.43-1.96c-26.42,0.06-52.84,0.04-79.25,0.04
		c-15.52,0-31.04,0.04-46.55-0.03c-8.06-0.04-14.49-5.36-17.42-13.36c-1.64-4.5-0.7-8.95-0.49-13.31
		c0.32-6.67,0.67-13.34,0.99-20.01c1.17-24.39,2.18-48.8,3.24-73.2c0.92-21.42,1.84-42.84,2.7-64.26c0.06-1.42,0.47-1.73,1.72-1.69
		c3.25,0.1,6.5,0.05,9.76,0.05c60.36,0,120.73,0,181.09,0c24.68,0,49.35,0,74.03,0c0.38,0,0.76,0.04,1.13-0.01
		c0.97-0.12,1.33,0.28,1.33,1.34c0.01,2.05-0.13,4.13,0.02,6.13c0.38,5.35,0.88,10.69,0.9,16.06c0,0.62,0.19,0.86,0.76,1.2
		c3.58,2.15,7.43,3.73,10.92,6.09c3.17,2.14,6.38,4.22,9.48,6.46c0.46,0.34,0.7,1.23,1.44,0.87c0.91-0.44,0.25-1.3,0.22-1.9
		c-0.63-15.61-1.35-31.21-1.98-46.82c-0.4-10.05-0.63-20.11-1.03-30.16c-0.96-24.24-2.01-48.48-2.93-72.73
		c-0.08-2.14-0.56-2.76-2.64-2.75c-18.85,0.1-37.69,0.02-56.54,0.11c-1.93,0.01-2.4-0.56-2.32-2.54c0.15-3.86,0.04-7.74,0.05-11.61
		c0.02-9.14-4.26-15.04-12.68-16.7c-8.03-1.58-16.13,5.27-16.23,13.62c-0.31,24.59-0.08,49.19-0.21,73.79
		c-0.03,5.6,1.6,9.93,5.82,13.5c3.91,3.3,8.17,3.72,12.5,2.44c7.06-2.1,10.76-7.8,10.78-15.56c0.02-7.98,0-15.97,0.03-23.95
		c0-0.56-0.35-1.27,0.28-1.72c0.12,0.03,0.2,0.03,0.26,0.07c10.35,6.5,15.83,19.66,13.42,32.34c-1.24,6.52-4.04,12.28-8.79,16.53
		c-4.34,3.88-8.73,8.15-15.07,7.96c-0.22-0.01-0.44,0.12-0.66,0.16c-8.29,1.23-15.85-1.08-22.21-6.56
		c-7.15-6.16-10.87-14.43-10.86-24.43c0.03-18.39-0.02-36.77,0.05-55.16c0.01-1.76-0.34-2.29-2.08-2.28
		c-13.62,0.09-27.25,0.05-40.88,0.05c-21.27,0-42.54-0.03-63.81,0.05c-1.93,0.01-2.39-0.55-2.32-2.54
		c0.15-4.35,0.12-8.71,0.02-13.06c-0.1-3.94-1.23-7.58-3.86-10.43c-4.4-4.77-9.7-6.1-15.68-4.11c-4.7,1.57-9.39,7.83-9.41,12.62
		c-0.05,25.16-0.05,50.32-0.1,75.48c-0.01,5.31,2.05,9.27,6.15,12.31c8.29,6.15,20.03,1.59,22.48-8.85
		c0.65-2.79,0.42-5.61,0.43-8.43C235.37,193.18,235.35,185.96,235.35,178.31z M482.42,390.21c-0.66-52.76-40.53-95.96-91.4-95.69
		c-25.07,0.13-46.66,9.87-64.2,28.95c-20.47,22.27-28.63,49.43-25.49,80.12c2.71,26.52,15.18,47.79,34.5,64.27
		c16.46,14.04,35.59,20.42,56.73,20.15C441.79,487.39,482.65,445.06,482.42,390.21z"/>
	<path class="st1" d="M235.35,178.31c0,7.65,0.02,14.87-0.01,22.09c-0.01,2.81,0.22,5.64-0.43,8.43c-2.45,10.44-14.18,15-22.48,8.85
		c-4.1-3.04-6.16-7-6.15-12.31c0.05-25.16,0.05-50.32,0.1-75.48c0.01-4.79,4.7-11.05,9.41-12.62c5.98-1.99,11.28-0.66,15.68,4.11
		c2.63,2.86,3.76,6.49,3.86,10.43c0.11,4.35,0.13,8.71-0.02,13.06c-0.07,1.98,0.39,2.54,2.32,2.54c21.27-0.08,42.54-0.05,63.81-0.05
		c13.63,0,27.25,0.04,40.88-0.05c1.74-0.01,2.09,0.52,2.08,2.28c-0.06,18.39-0.02,36.77-0.05,55.16c-0.02,10,3.7,18.28,10.86,24.43
		c6.36,5.48,13.92,7.79,22.21,6.56c0.22-0.03,0.44-0.16,0.66-0.16c6.34,0.19,10.73-4.08,15.07-7.96c4.75-4.25,7.55-10.01,8.79-16.53
		c2.4-12.69-3.07-25.84-13.42-32.34c-0.06-0.04-0.14-0.04-0.26-0.07c-0.63,0.46-0.28,1.16-0.28,1.72c-0.03,7.98,0,15.97-0.03,23.95
		c-0.02,7.76-3.73,13.46-10.78,15.56c-4.33,1.29-8.59,0.86-12.5-2.44c-4.22-3.56-5.85-7.9-5.82-13.5c0.12-24.6-0.1-49.19,0.21-73.79
		c0.1-8.35,8.2-15.2,16.23-13.62c8.43,1.65,12.71,7.56,12.68,16.7c-0.01,3.87,0.11,7.75-0.05,11.61c-0.08,1.98,0.39,2.55,2.32,2.54
		c18.85-0.09,37.69-0.01,56.54-0.11c2.08-0.01,2.56,0.61,2.64,2.75c0.92,24.25,1.97,48.48,2.93,72.73
		c0.4,10.05,0.63,20.11,1.03,30.16c0.63,15.61,1.35,31.21,1.98,46.82c0.02,0.6,0.69,1.46-0.22,1.9c-0.75,0.36-0.98-0.54-1.44-0.87
		c-3.11-2.25-6.31-4.32-9.48-6.46c-3.49-2.36-7.34-3.94-10.92-6.09c-0.56-0.34-0.75-0.57-0.76-1.2c-0.01-5.37-0.52-10.71-0.9-16.06
		c-0.14-2.01-0.01-4.09-0.02-6.13c0-1.06-0.36-1.47-1.33-1.34c-0.37,0.05-0.76,0.01-1.13,0.01c-24.68,0-49.35,0-74.03,0
		c-60.36,0-120.73,0-181.09,0c-3.25,0-6.51,0.05-9.76-0.05c-1.25-0.04-1.66,0.27-1.72,1.69c-0.86,21.42-1.77,42.84-2.7,64.26
		c-1.05,24.4-2.07,48.8-3.24,73.2c-0.32,6.67-0.67,13.35-0.99,20.01c-0.21,4.36-1.15,8.81,0.49,13.31
		c2.92,8.01,9.35,13.32,17.42,13.36c15.52,0.07,31.03,0.03,46.55,0.03c26.42,0,52.84,0.02,79.25-0.04c1.62,0,2.56,0.46,3.43,1.96
		c4.47,7.69,9.83,14.64,15.95,20.86c-0.22,0.61-0.65,0.44-0.98,0.44c-48.14,0-96.28-0.03-144.43,0.01c-4.67,0-9.05-0.96-13.47-2.54
		c-11.27-4.02-18.15-12.65-23.18-23.57c-1.54-3.35-2.57-6.89-2.88-10.43c-0.28-3.25-0.32-6.61-0.15-9.97
		c0.94-17.79,1.54-35.59,2.26-53.39c0.52-12.89,1.28-25.77,1.42-38.66c0.05-4.59,0.35-9.18,0.52-13.74
		c0.32-8.58,0.87-17.16,1.22-25.74c0.51-12.64,1.22-25.29,1.37-37.94c0.06-5.03,0.25-10.07,0.55-15.06
		c0.87-14.45,1.29-28.92,1.93-43.37c0.72-16.19,1.36-32.37,1.94-48.57c0.06-1.78,0.47-2.25,2.17-2.24c14.23,0.08,28.46,0.08,42.69,0
		c1.73-0.01,2.1,0.5,2.09,2.27c-0.06,18.63-0.14,37.26,0,55.89c0.08,10.51,4.31,19.06,12.49,24.91c9.74,6.96,20.16,7.81,30.51,1.65
		c10.62-6.32,15.67-16.38,14.95-29.28C249.15,192.17,244.06,184.21,235.35,178.31z"/>
	<path class="st2" d="M482.42,390.21c0.24,54.85-40.62,97.18-89.85,97.81c-21.14,0.27-40.28-6.11-56.73-20.15
		c-19.32-16.49-31.8-37.75-34.5-64.27c-3.13-30.69,5.03-57.86,25.49-80.12c17.54-19.08,39.13-28.81,64.2-28.95
		C441.89,294.25,481.76,337.45,482.42,390.21z M380.7,362.2c0,10.89,0,21.77,0,32.66c0,4.99,1.73,9.25,5.41,12.23
		c10.28,8.34,20.67,16.55,31.09,24.69c3.96,3.09,9.26,2.67,13.05-0.69c3.76-3.32,4.92-8.56,2.98-13.32
		c-1.19-2.93-3.37-4.87-5.7-6.72c-7.83-6.2-15.59-12.48-23.44-18.64c-1.25-0.98-1.62-2.01-1.62-3.59
		c0.04-19.59,0.05-39.19,0.01-58.78c-0.01-7.22-4.68-12.37-11-12.33c-6.2,0.04-10.77,5.23-10.78,12.32
		C380.68,340.75,380.7,351.47,380.7,362.2z"/>
	<path class="st3" d="M380.7,362.2c0-10.72-0.01-21.45,0.01-32.17c0.01-7.09,4.58-12.28,10.78-12.32c6.33-0.04,10.99,5.11,11,12.33
		c0.03,19.59,0.03,39.19-0.01,58.78c0,1.58,0.37,2.61,1.62,3.59c7.85,6.16,15.61,12.45,23.44,18.64c2.33,1.85,4.51,3.79,5.7,6.72
		c1.94,4.76,0.77,10-2.98,13.32c-3.79,3.36-9.09,3.78-13.05,0.69c-10.42-8.15-20.81-16.35-31.09-24.69
		c-3.68-2.99-5.41-7.24-5.41-12.23C380.7,383.97,380.7,373.08,380.7,362.2z"/>
</g>
<g>
	<path class="st4" d="M172.77,43.27c3.99-2.09,8.38-2.44,12.65-3.19C250.8,28.57,316.18,17.1,381.56,5.65
		c1.33-0.23,2.7-0.31,4.06-0.31c1.26,0.01,2.33,0.49,2.57,2.06c0.13,2.47-1.49,3.87-2.96,5.27c-8.07,7.66-16.11,15.35-24.14,23.04
		c-16.81,16.1-33.71,32.1-50.52,48.2c-13.7,13.13-27.54,26.1-41.28,39.18c-12.46,11.86-24.85,23.79-37.38,35.57
		c-2.84,2.66-5.97,4.71-9.4,6.31c-6.15,3.48-12.96,4.38-19.66,5.54c-11.03,1.9-22.06,3.78-33.08,5.69
		c-12.55,2.18-25.09,4.42-37.65,6.58c-11.57,1.99-23.13,4.07-34.68,6.18c-8.14,1.48-16.3,2.88-24.46,4.28
		c-0.45,0.08-0.9,0.15-1.36,0.14c-0.64-0.02-1.36-0.04-1.59-0.81c-0.24-0.82,0.43-1.24,0.95-1.57c3.19-2.06,6.1-4.56,9.25-6.68
		c16.51-11.12,32.79-22.61,49.16-33.95c12.4-8.59,24.78-17.2,37.15-25.84c4.23-2.96,8.58-5.77,12.83-8.71
		c0.62-0.43,1.27-0.71,2.03-0.76c0.35-0.02-0.03,0.14,0.2-0.11c0.14-0.16-0.36,0.05-0.43-0.23c0.05-1.56,1.23-1.8,2.24-2.24
		c0.96-0.16,1.89-0.51,2.87-0.65c1.27-0.18-0.49-0.55,0.03-0.8c0.66-1.54,2.05-1.87,3.35-2.36c4.53-1.46,8.89-3.27,12.35-6.9
		c0.85-0.89,1.87-1.91,1.31-3.23c-0.56-1.34-1.97-1.19-3.14-1.06c-1.62,0.19-3.23,0.44-4.83,0.85c-1.58,0.09-3,0.62-4.36,1.49
		c-13.01,8.3-26.01,16.64-39.02,24.95c-10.67,6.82-21.35,13.62-32,20.46c-10.73,6.89-21.5,13.73-32.22,20.64
		c-10.64,6.87-21.31,13.69-32.02,20.44c-1.56,0.99-3.04,2.12-4.65,3.03c-3.54,2-3.75,2.5-3.22,6.63c0.01,1.54-0.97,1.82-2.14,2.01
		c-12.42,2.01-24.76,4.53-37.21,6.33c-1.7,0.25-3.42,0.72-4.89-0.73c-1.6-2.55,0.3-4.02,1.68-5.38c5.19-5.11,10.49-10.1,15.76-15.13
		c45.89-43.72,91.77-87.44,137.67-131.14c1.89-1.8,3.83-3.56,6.2-4.65C167.71,46.32,170.28,44.89,172.77,43.27z"/>
	<path class="st4" d="M250.3,241.32c-11.12,5.81-22.7,10.39-34.47,14.42c-16.2,5.54-32.7,9.62-49.75,10.63
		c-9.11,0.54-18.17,0.27-26.95-2.74c-5.69-1.95-10.98-4.66-14.14-10.53c0.04-1.03-0.56-1.82-0.94-2.68
		c-5.83-13.01-11.67-26.01-17.52-39c-0.45-2.22,0.78-1.13,1.35-0.67c1.75,1.42,3.67,2.48,5.64,3.49c5.42,2.78,11.29,3.45,17.14,4.31
		c11.48,1.68,23,1.23,34.49,0.67c10.31-0.5,20.59-1.67,30.85-3.1c6.83-0.95,13.68-1.83,20.48-2.97c8.06-1.36,16.16-2.55,24.12-4.58
		c1.26-0.32,2.33-1.04,3.32-1.92c9.47-8.43,18.58-17.28,27.5-26.37c6.16-6.28,12.41-12.46,18.25-19.07
		c4.34-4.91,8.68-9.84,12.78-15.01c4.21-5.32,8.45-10.61,12.18-16.31c6.13-9.36,12.45-18.66,13.48-30.6
		c0.07-0.8-0.03-2.59,1.66-1.22c6.09,13.57,12.49,26.98,18.13,40.77c0.07,0.16,0.26,0.26,0.4,0.38c1.88,4.72,1.31,9.49,0.11,14.2
		c-2.41,9.46-7.51,17.34-13.32,24.72c-11.04,14.04-24.3,25.42-38.42,35.72c-10.59,7.72-21.63,14.62-33.08,20.78
		c-0.81,0.43-1.65,0.79-2.48,1.19C257.34,237.28,253.74,239.12,250.3,241.32z"/>
	<path class="st5" d="M190.24,109.03c-1.38,0.66-2.8,1.25-3.85,2.49c-0.47,0.98-1.39,1.13-2.26,1.35c-1.08,0.46-2.14,0.93-2.9,1.94
		c-3.36,2.77-7.01,5.1-10.66,7.35c-7.77,4.8-15.19,10.18-22.94,15.01c-9.4,5.87-18.69,11.94-28.03,17.92
		c-8.88,5.68-17.74,11.38-26.62,17.06c-10.82,6.93-21.61,13.91-32.48,20.76c-1.25,0.79-2.5,1.59-3.61,2.57
		c-1.02,0.99-0.29,1.93,0.11,2.85c0.56,1.31,1.12,2.61,1.81,3.86c0.13,0.24,0.25,0.49,0.37,0.73c3.98,8.98,7.94,17.96,11.93,26.93
		c2.21,4.97,4.45,9.92,6.68,14.87c0.43,0.94,0.7,2.02,1.7,2.51c1.94,3.6,1.7,5.53-0.87,7.13c-3.15,1.97-6.86,0.54-6.78-3.29
		c-0.63-1.59-1.21-3.21-1.91-4.77c-5.85-13.05-11.71-26.1-17.59-39.13c-0.45-1-0.62-2.27-1.77-2.79c-1.62-2.31-3.01-4.73-3.08-7.74
		c-1.77-4.12-1.17-5.43,2.65-7.82c10.73-6.72,21.37-13.59,32.04-20.42c14.17-9.07,28.33-18.16,42.5-27.24
		c17.51-11.22,35.03-22.44,52.55-33.67c4.83-3.09,9.66-6.17,14.48-9.27c1.36-0.88,2.75-0.83,4.19-0.39c1.94,0.22,2.51,1.7,2.64,3.44
		c0.17,2.15-0.83,3.82-2.52,4.76C194.13,107.09,192.23,108.16,190.24,109.03z"/>
	<path class="st6" d="M55.57,195.14c20-12.82,39.99-25.63,59.99-38.45c20.61-13.22,41.22-26.46,61.84-39.67
		c1.24-0.8,2.55-1.47,3.83-2.2c0.77-0.08,1.35-0.97,1.98-0.75c-37.54,26.02-75.19,52.12-113.26,78.5c3.65,0.17,6.73-0.89,9.82-1.4
		c12.22-2.01,24.4-4.34,36.61-6.49c6.33-1.11,12.72-1.84,19.01-3.15c8.97-1.87,18-3.24,27.01-4.85c8.46-1.52,16.95-2.84,25.42-4.32
		c8.81-1.55,17.65-3,26.39-4.92c2.75-0.6,5.6-1.61,8.09-3.27c2.11,1.48,2.67,3.9,3.34,6.25c-0.91,3.85-4.24,4.53-6.95,5.03
		c-16,2.95-31.96,6.09-48.01,8.73c-6.45,1.06-12.89,2.25-19.34,3.39c-11.36,2-22.71,4.09-34.1,5.94c-4.3,0.7-8.6,1.48-12.89,2.3
		c-3.1,0.59-3.22,0.99-1.9,3.96c1.08,2.45,2.21,4.88,3.28,7.33c0.45,1.04,1.07,2.06,0.67,3.3c5.91,13.15,11.82,26.3,17.7,39.46
		c0.45,1,1.31,1.92,0.9,3.21c-0.7-1.35-1.47-2.66-2.09-4.05c-7.59-16.82-15.19-33.64-22.68-50.51c-0.87-1.96-1.71-2.69-3.84-2.29
		c-12.39,2.32-24.8,4.47-37.21,6.68c0,0-0.16,0.01-0.16,0.01C57.29,200.63,56.06,198.07,55.57,195.14z"/>
	<path class="st6" d="M225.32,171.01c-1.01-2.28-2.01-4.56-3.02-6.83c6.38-2.57,10.94-7.8,15.86-12.46
		c13.39-12.7,26.65-25.55,40.02-38.27c11.68-11.11,23.51-22.03,35.14-33.19C327.36,66.77,341.43,53.3,355.63,40
		c9.85-9.23,19.52-18.68,29.27-28.03c1.36-1.31,2.51-2.78,3.28-4.57c3.94,8.53,5.04,7.17-2.2,14.08
		c-20.42,19.46-40.83,38.93-61.31,58.32c-1.56,1.48-1.52,2.57-0.7,4.39c7.63,16.83,15.18,33.7,22.73,50.56
		c0.5,1.12,1.23,2.16,1.27,3.48c-0.92-0.49-1.05-1.53-1.43-2.37c-4.02-8.88-8.13-17.72-11.96-26.69c-3.42-8-7.87-15.43-11.17-23.49
		c-0.22-0.54-0.51-1.03-0.99-1.32c-1.43-0.33-2.16,0.87-3,1.66c-8.44,7.96-16.79,16.02-25.21,24c-14.8,14.03-29.48,28.19-44.29,42.2
		c-5.03,4.76-9.96,9.64-15.12,14.22c-2.1,1.86-4.24,3.68-6.84,4.7C227.11,171.47,226.14,172.33,225.32,171.01z"/>
	<path class="st7" d="M90.79,259.55c7.07,5.98,12.19,13.73,17.11,21.62c10.62,17.04,19.21,35.28,27.74,53.56
		c1.31,2.81,0.96,5.18-0.62,7.58c-1.8,2.73-4.15,4.87-6.75,6.66c-6.01,4.13-12.37,7.33-19.65,7.94c-4.76,0.39-6.28-0.54-8.33-5.07
		c-7.36-16.21-14.15-32.68-19.72-49.69c-3.35-10.22-6.32-20.58-6.96-31.49c-0.06-0.96,0.01-1.93,0.02-2.89
		c0.84-0.62,1.74-0.25,2.62-0.15c5.51,0.64,9.63-1.68,12.57-6.6C89.24,260.27,89.28,258.71,90.79,259.55z"/>
	<path class="st8" d="M47.5,196.64c1.13,2.54,2.88,4.79,3.08,7.74c-12.58,2.21-25.16,4.43-37.74,6.63c-0.89,0.16-1.8,0.19-2.69,0.32
		c-2.16,0.31-3.66-0.42-4.43-2.76c-0.57-1.72-1.4-3.35-2.11-5.02c3.92,0.7,7.77-0.25,11.55-0.95c10.56-1.96,21.1-4.01,31.74-5.42
		C47.12,197.17,47.3,196.84,47.5,196.64z"/>
	<path class="st9" d="M90.79,259.55c-1.82,0.75-1.8,2.94-3.02,4.29c-4.06,4.49-8.73,5.55-14.16,3.91
		c-6.02-2.84-6.98-10.12-3.55-14.35c0.86,2.44,1.6,5.03,4.8,4.81c3.21-0.22,6.01-1.42,7.96-4.25c1.33-1.92,1.63-3.89-0.49-5.55
		c-0.37-0.29-0.64-0.68-0.51-1.24c5.97,0.45,9.09,4.15,8.81,10.4C90.6,258.23,90.73,258.89,90.79,259.55z"/>
	<path class="st10" d="M81.82,247.17c3.96,3,3.6,7.31-0.89,9.69c-1.91,1.01-3.71,2.32-6.08,2.13c-3.85-0.32-4.81-1.32-4.79-5.59
		c0.27-1.06,0.96-1.75,1.79-2.32c2.4,3.78,3.35,4.24,6.03,2.86c1.96-1.01,3.14-2.36,1.78-4.79c-0.33-0.59-0.55-1.23-0.16-1.91
		C80.26,246.89,81.04,247.04,81.82,247.17z"/>
	<path class="st11" d="M322.18,82.33c1.11,0.43,1.21,1.63,1.63,2.54c7.59,16.85,15.15,33.71,22.73,50.56
		c0.43,0.95,0.96,1.86,1.44,2.79c0.11,0.33,0.21,0.65,0.32,0.98c-1.2-0.47-1.33-1.76-1.79-2.76c-5.86-12.96-11.68-25.94-17.52-38.92
		c-0.76-0.21-1.22-0.83-1.55-1.5c-1.8-3.65-3.45-7.37-5.02-11.14C322.08,84.06,322.08,83.2,322.18,82.33z"/>
	<path class="st12" d="M250.3,241.32c3.25-2.62,6.85-4.46,10.8-5.51C257.6,237.86,254,239.7,250.3,241.32z"/>
	<path class="st13" d="M172.77,43.27c-2.33,1.96-4.81,3.59-7.84,4C167.4,45.62,170.01,44.3,172.77,43.27z"/>
	<path class="st14" d="M190.24,109.03c1.58-1.07,3.15-2.16,4.75-3.2c3.57-2.31,3.87-4.85,0.91-8c1.82-1.16,3.88-1.35,5.86-1.17
		c2.8,0.25,3.58,2.47,1.63,4.75c-2.11,2.46-4.63,4.56-7.63,5.57C193.9,107.61,192.39,109.34,190.24,109.03z"/>
	<path class="st6" d="M184.12,112.87c0.75-0.45,1.51-0.9,2.26-1.35c0.26,0.06,0.96-0.01,0.68,0.22
		C186.25,112.42,185.33,113.19,184.12,112.87z"/>
	<path class="st4" d="M322.18,82.33c2.27,5.06,4.54,10.12,6.81,15.18c-0.41,5-1.49,9.8-3.3,14.47c-1.5,3.87-3.94,7.11-5.69,10.78
		c-2.1,4.41-5.25,8.03-7.78,12.12c-2.16,3.5-4.88,6.65-7.58,9.72c-3.2,3.63-6.02,7.59-9.27,11.2c-3.95,4.39-7.86,8.84-11.84,13.19
		c-4.26,4.65-8.67,9.17-13.2,13.51c-5.09,4.88-9.83,10.13-15.22,14.69c-3.09,2.61-6.07,5.5-8.86,8.45
		c-2.91,3.07-6.34,4.06-9.95,4.68c-7.37,1.28-14.69,2.91-22.13,3.8c-6.17,0.73-12.28,2.18-18.46,2.8c-4.99,0.5-9.96,1.22-14.95,1.66
		c-5.8,0.51-11.6,1.07-17.41,1.46c-6.09,0.41-12.23,0.85-18.31,0.53c-7.72-0.41-15.47-1.13-23.07-2.56
		c-5.64-1.06-11.09-3.4-15.56-7.6c-1.85-4.1-3.71-8.2-5.53-12.31c-0.62-1.41-1.23-1.96,1.28-2.55c8.49-1.99,17.12-2.97,25.65-4.68
		c11.61-2.33,23.33-4.01,34.99-6.07c11.84-2.09,23.63-4.51,35.49-6.39c6.75-1.07,13.39-2.69,20.17-3.59c2.49-0.33,5-1.69,6.87-3.82
		c3.4-0.15,5.87-2.39,8.22-4.55c8.01-7.38,15.9-14.92,23.82-22.42c11.5-10.9,22.99-21.82,34.47-32.75
		C301.95,101.65,312.06,91.98,322.18,82.33z"/>
	<path class="st15" d="M71.21,247.56c-6.49-14.45-12.99-28.9-19.48-43.36c0.08-0.04,0.16-0.08,0.24-0.12
		c6.49,14.43,12.97,28.87,19.46,43.3C71.35,247.44,71.28,247.5,71.21,247.56z"/>
	<path class="st16" d="M55.57,195.14c1.15,2.6,2.3,5.2,3.45,7.8C56.91,200.82,55.67,198.26,55.57,195.14z"/>
	<path class="st5" d="M127.66,343.87c-6.07,5.21-12.7,8.77-20.78,8.25c-1.68-0.11-2.58-0.93-3.28-2.5
		c-3.74-8.36-7.15-16.86-10.47-25.42c-3.09-7.97-5.98-16.01-8.67-24.12c-2.61-7.89-4.48-16.02-5.91-24.25
		c-0.33-1.92,0.04-3.18,2.32-3.53c3.35-0.51,6.33-2.2,8.98-4.48c3.51,2.06,5.25,5.8,7.35,9.11c9.67,15.2,16.99,31.75,24.23,48.35
		c2.1,4.82,3.66,9.9,5.93,14.65C127.95,341.17,128.08,342.51,127.66,343.87z"/>
	<path class="st17" d="M127.66,343.87c-1.62-6.15-4.54-11.74-6.84-17.59c-3.35-8.56-7.26-16.89-11.23-25.15
		c-3.45-7.17-7.4-14.06-11.48-20.87c-2.59-4.31-5.52-8.3-8.27-12.45c0.72-1.11,1.45-1.31,2.38-0.18c3.68,4.49,7.41,8.94,10.47,13.95
		c3.59,5.88,7.15,11.77,10.74,17.64c1.88,3.07,3.27,6.43,5,9.59c3.64,6.66,7.08,13.48,10,20.56c0.4,0.97,0.94,1.84,1.57,2.69
		c2.71,3.72,2.53,6.65-0.5,10.07C128.93,342.78,128.27,343.3,127.66,343.87z"/>
</g>
</svg>
