<?xml version="1.0" encoding="utf-8"?>
<!-- Generator: Adobe Illustrator 24.0.3, SVG Export Plug-In . SVG Version: 6.00 Build 0)  -->
<svg version="1.1" id="Layer_1" xmlns="http://www.w3.org/2000/svg" xmlns:xlink="http://www.w3.org/1999/xlink" x="0px" y="0px"
	 viewBox="0 0 612 792" style="enable-background:new 0 0 612 792;" xml:space="preserve">
<style type="text/css">
	.st0{fill:#F9FAFB;stroke:#46B981;stroke-miterlimit:10;}
	.st1{fill:#0336FF;stroke:#0336FF;stroke-miterlimit:10;}
	.st2{fill:#EC1B69;stroke:#EC1B69;stroke-miterlimit:10;}
	.st3{fill:#F9FAFB;stroke:#EC1B69;stroke-miterlimit:10;}
	.st4{fill:#414141;}
	.st5{fill:#FFD65E;}
	.st6{fill:#333232;}
	.st7{fill:#F1CB5B;}
	.st8{fill:#323232;}
	.st9{fill:#FFD65F;}
	.st10{fill:#F2CB5B;}
	.st11{fill:#323131;}
	.st12{fill:#383838;}
	.st13{fill:#363636;}
	.st14{fill:#333332;}
	.st15{fill:#FBD653;}
	.st16{fill:#FCE05F;}
	.st17{fill:#FFDE80;}
</style>
<g>
	<path class="st0" d="M289.47,343.35c3.92,2.49,6.2,5.84,6.47,10.3c0.32,5.44-1.95,9.68-6.71,12.34c-4.65,2.6-9.33,2.24-13.7-0.69
		c-3.67-2.47-5.57-6.07-5.61-10.5c-0.07-7.85-0.03-15.71,0-23.56c0-0.75-0.16-0.96-0.94-0.96c-6.39,0.04-12.78,0.03-19.18,0
		c-0.76,0-0.94,0.19-0.97,0.95c-0.26,6.83-0.55,13.65-0.87,20.47c-0.29,6.1-0.47,12.19-0.87,18.29c-0.14,2.1-0.22,4.23-0.25,6.35
		c-0.07,5.33-0.39,10.66-0.62,15.99c-0.16,3.62-0.4,7.24-0.55,10.85c-0.08,1.92-0.21,3.86-0.23,5.79c-0.06,5.44-0.4,10.87-0.64,16.3
		c-0.32,7.5-0.59,15.01-1.01,22.51c-0.08,1.42-0.06,2.83,0.07,4.2c0.14,1.49,0.6,2.98,1.29,4.4c2.26,4.61,5.35,8.24,10.41,9.94
		c1.99,0.67,3.95,1.07,6.05,1.07c21.62-0.02,43.25-0.01,64.87-0.01c0.15,0,0.34,0.07,0.44-0.19c-2.75-2.62-5.16-5.55-7.16-8.8
		c-0.39-0.63-0.81-0.83-1.54-0.83c-11.87,0.02-23.73,0.02-35.6,0.02c-6.97,0-13.94,0.02-20.91-0.01c-3.62-0.02-6.51-2.26-7.82-5.63
		c-0.74-1.9-0.32-3.77-0.22-5.61c0.15-2.81,0.3-5.63,0.44-8.44c0.52-10.28,0.98-20.57,1.45-30.86c0.42-9.03,0.82-18.06,1.21-27.09
		c0.03-0.6,0.21-0.73,0.77-0.71c1.46,0.04,2.92,0.02,4.38,0.02c27.11,0,54.23,0,81.34,0c11.08,0,22.17,0,33.25,0
		c0.17,0,0.34,0.02,0.51,0c0.44-0.05,0.6,0.12,0.6,0.57c0,0.86-0.06,1.74,0.01,2.59c0.17,2.26,0.4,4.5,0.4,6.77
		c0,0.26,0.09,0.36,0.34,0.5c1.61,0.91,3.34,1.57,4.91,2.57c1.42,0.9,2.86,1.78,4.26,2.72c0.21,0.14,0.31,0.52,0.65,0.37
		c0.41-0.18,0.11-0.55,0.1-0.8c-0.28-6.58-0.61-13.16-0.89-19.74c-0.18-4.24-0.28-8.48-0.46-12.71c-0.43-10.22-0.9-20.44-1.32-30.66
		c-0.04-0.9-0.25-1.16-1.18-1.16c-8.47,0.04-16.93,0.01-25.4,0.05c-0.87,0-1.08-0.23-1.04-1.07c0.07-1.63,0.02-3.26,0.02-4.89
		c0.01-3.85-1.91-6.34-5.7-7.04c-3.61-0.66-7.24,2.22-7.29,5.74c-0.14,10.37-0.04,20.74-0.09,31.11c-0.01,2.36,0.72,4.19,2.61,5.69
		c1.76,1.39,3.67,1.57,5.62,1.03c3.17-0.89,4.83-3.29,4.84-6.56c0.01-3.37,0-6.73,0.01-10.1c0-0.24-0.16-0.53,0.12-0.73
		c0.05,0.01,0.09,0.01,0.11,0.03c4.65,2.74,7.11,8.29,6.03,13.64c-0.55,2.75-1.81,5.18-3.95,6.97c-1.95,1.64-3.92,3.44-6.77,3.36
		c-0.1,0-0.2,0.05-0.3,0.07c-3.72,0.52-7.12-0.46-9.98-2.76c-3.21-2.59-4.88-6.09-4.88-10.3c0.01-7.75-0.01-15.5,0.02-23.26
		c0-0.74-0.15-0.97-0.94-0.96c-6.12,0.04-12.24,0.02-18.36,0.02c-9.55,0-19.11-0.01-28.66,0.02c-0.87,0-1.07-0.23-1.04-1.07
		c0.07-1.83,0.06-3.67,0.01-5.51c-0.04-1.66-0.55-3.19-1.73-4.4c-1.98-2.01-4.36-2.57-7.04-1.73c-2.11,0.66-4.22,3.3-4.22,5.32
		c-0.02,10.61-0.02,21.21-0.05,31.82c0,2.24,0.92,3.91,2.76,5.19c3.73,2.59,9,0.67,10.09-3.73c0.29-1.18,0.19-2.37,0.2-3.55
		C289.48,349.62,289.47,346.58,289.47,343.35z M400.44,432.69c-0.3-22.24-18.2-40.46-41.05-40.34c-11.26,0.06-20.96,4.16-28.83,12.2
		c-9.19,9.39-12.86,20.84-11.45,33.78c1.22,11.18,6.82,20.15,15.5,27.1c7.39,5.92,15.99,8.61,25.48,8.5
		C382.19,473.66,400.55,455.81,400.44,432.69z"/>
	<path class="st1" d="M289.47,343.35c0,3.22,0.01,6.27,0,9.31c-0.01,1.19,0.1,2.38-0.2,3.55c-1.1,4.4-6.37,6.33-10.09,3.73
		c-1.84-1.28-2.77-2.95-2.76-5.19c0.02-10.61,0.02-21.21,0.05-31.82c0-2.02,2.11-4.66,4.22-5.32c2.69-0.84,5.07-0.28,7.04,1.73
		c1.18,1.2,1.69,2.74,1.73,4.4c0.05,1.83,0.06,3.67-0.01,5.51c-0.03,0.84,0.18,1.07,1.04,1.07c9.55-0.03,19.11-0.02,28.66-0.02
		c6.12,0,12.24,0.02,18.36-0.02c0.78,0,0.94,0.22,0.94,0.96c-0.03,7.75-0.01,15.5-0.02,23.26c-0.01,4.22,1.66,7.71,4.88,10.3
		c2.86,2.31,6.25,3.28,9.98,2.76c0.1-0.01,0.2-0.07,0.3-0.07c2.85,0.08,4.82-1.72,6.77-3.36c2.13-1.79,3.39-4.22,3.95-6.97
		c1.08-5.35-1.38-10.89-6.03-13.64c-0.03-0.02-0.06-0.02-0.11-0.03c-0.28,0.19-0.12,0.49-0.12,0.73c-0.01,3.37,0,6.73-0.01,10.1
		c-0.01,3.27-1.67,5.67-4.84,6.56c-1.94,0.54-3.86,0.36-5.62-1.03c-1.9-1.5-2.63-3.33-2.61-5.69c0.06-10.37-0.05-20.74,0.09-31.11
		c0.05-3.52,3.68-6.41,7.29-5.74c3.78,0.7,5.71,3.19,5.7,7.04c0,1.63,0.05,3.27-0.02,4.89c-0.04,0.84,0.18,1.07,1.04,1.07
		c8.47-0.04,16.93-0.01,25.4-0.05c0.93,0,1.15,0.26,1.18,1.16c0.41,10.22,0.88,20.44,1.32,30.66c0.18,4.24,0.28,8.48,0.46,12.71
		c0.28,6.58,0.61,13.16,0.89,19.74c0.01,0.25,0.31,0.61-0.1,0.8c-0.34,0.15-0.44-0.23-0.65-0.37c-1.39-0.95-2.84-1.82-4.26-2.72
		c-1.57-1-3.3-1.66-4.91-2.57c-0.25-0.14-0.34-0.24-0.34-0.5c-0.01-2.26-0.23-4.51-0.4-6.77c-0.06-0.85,0-1.72-0.01-2.59
		c0-0.45-0.16-0.62-0.6-0.57c-0.17,0.02-0.34,0-0.51,0c-11.08,0-22.17,0-33.25,0c-27.11,0-54.23,0-81.34,0
		c-1.46,0-2.92,0.02-4.38-0.02c-0.56-0.02-0.75,0.11-0.77,0.71c-0.39,9.03-0.8,18.06-1.21,27.09c-0.47,10.29-0.93,20.57-1.45,30.86
		c-0.14,2.81-0.3,5.63-0.44,8.44c-0.09,1.84-0.52,3.71,0.22,5.61c1.31,3.38,4.2,5.62,7.82,5.63c6.97,0.03,13.94,0.01,20.91,0.01
		c11.87,0,23.73,0.01,35.6-0.02c0.73,0,1.15,0.19,1.54,0.83c2.01,3.24,4.41,6.17,7.16,8.8c-0.1,0.26-0.29,0.19-0.44,0.19
		c-21.62,0-43.25-0.01-64.87,0.01c-2.1,0-4.06-0.41-6.05-1.07c-5.06-1.69-8.15-5.33-10.41-9.94c-0.69-1.41-1.15-2.9-1.29-4.4
		c-0.13-1.37-0.15-2.79-0.07-4.2c0.42-7.5,0.69-15.01,1.01-22.51c0.23-5.43,0.58-10.87,0.64-16.3c0.02-1.94,0.16-3.87,0.23-5.79
		c0.14-3.62,0.39-7.23,0.55-10.85c0.23-5.33,0.55-10.66,0.62-15.99c0.03-2.12,0.11-4.25,0.25-6.35c0.39-6.09,0.58-12.19,0.87-18.29
		c0.32-6.82,0.61-13.65,0.87-20.47c0.03-0.75,0.21-0.95,0.97-0.95c6.39,0.03,12.78,0.03,19.18,0c0.78,0,0.94,0.21,0.94,0.96
		c-0.03,7.85-0.06,15.71,0,23.56c0.04,4.43,1.94,8.03,5.61,10.5c4.37,2.94,9.06,3.29,13.7,0.69c4.77-2.67,7.04-6.91,6.71-12.34
		C295.67,349.19,293.38,345.84,289.47,343.35z"/>
	<path class="st2" d="M400.44,432.69c0.11,23.12-18.25,40.97-40.36,41.24c-9.5,0.11-18.09-2.58-25.48-8.5
		c-8.68-6.95-14.28-15.91-15.5-27.1c-1.41-12.94,2.26-24.39,11.45-33.78c7.88-8.04,17.57-12.15,28.83-12.2
		C382.24,392.23,400.15,410.45,400.44,432.69z M354.75,420.88c0,4.59,0,9.18,0,13.77c0,2.1,0.78,3.9,2.43,5.16
		c4.62,3.52,9.28,6.98,13.97,10.41c1.78,1.3,4.16,1.13,5.86-0.29c1.69-1.4,2.21-3.61,1.34-5.62c-0.54-1.23-1.51-2.05-2.56-2.83
		c-3.51-2.61-7-5.26-10.53-7.86c-0.56-0.41-0.73-0.85-0.73-1.51c0.02-8.26,0.02-16.52,0.01-24.78c-0.01-3.04-2.1-5.22-4.94-5.2
		c-2.79,0.02-4.84,2.21-4.84,5.19C354.75,411.84,354.75,416.36,354.75,420.88z"/>
	<path class="st3" d="M354.75,420.88c0-4.52-0.01-9.04,0-13.56c0.01-2.99,2.06-5.18,4.84-5.19c2.84-0.02,4.94,2.16,4.94,5.2
		c0.02,8.26,0.01,16.52-0.01,24.78c0,0.67,0.17,1.1,0.73,1.51c3.53,2.6,7.01,5.25,10.53,7.86c1.05,0.78,2.02,1.6,2.56,2.83
		c0.87,2.01,0.35,4.21-1.34,5.62c-1.7,1.41-4.08,1.59-5.86,0.29c-4.68-3.43-9.35-6.89-13.97-10.41c-1.65-1.26-2.43-3.05-2.43-5.16
		C354.75,430.06,354.75,425.47,354.75,420.88z"/>
</g>
<g>
	<path class="st4" d="M261.36,286.42c1.79-0.88,3.76-1.03,5.68-1.34c29.36-4.85,58.73-9.69,88.1-14.52c0.6-0.1,1.21-0.13,1.82-0.13
		c0.57,0,1.05,0.21,1.15,0.87c0.06,1.04-0.67,1.63-1.33,2.22c-3.62,3.23-7.24,6.47-10.84,9.71c-7.55,6.79-15.14,13.53-22.69,20.32
		c-6.15,5.53-12.37,11-18.54,16.52c-5.6,5-11.16,10.03-16.79,14.99c-1.27,1.12-2.68,1.98-4.22,2.66c-2.76,1.47-5.82,1.85-8.83,2.33
		c-4.95,0.8-9.91,1.59-14.86,2.4c-5.64,0.92-11.27,1.86-16.91,2.77c-5.2,0.84-10.39,1.72-15.58,2.6c-3.66,0.62-7.32,1.21-10.99,1.81
		c-0.2,0.03-0.4,0.06-0.61,0.06c-0.29-0.01-0.61-0.02-0.71-0.34c-0.11-0.34,0.19-0.52,0.43-0.66c1.43-0.87,2.74-1.92,4.15-2.82
		c7.42-4.69,14.73-9.53,22.08-14.31c5.57-3.62,11.13-7.25,16.68-10.89c1.9-1.25,3.85-2.43,5.76-3.67c0.28-0.18,0.57-0.3,0.91-0.32
		c0.16-0.01-0.01,0.06,0.09-0.05c0.06-0.07-0.16,0.02-0.19-0.1c0.02-0.66,0.55-0.76,1.01-0.95c0.43-0.07,0.85-0.21,1.29-0.27
		c0.57-0.08-0.22-0.23,0.01-0.34c0.29-0.65,0.92-0.79,1.51-0.99c2.04-0.61,3.99-1.38,5.55-2.91c0.38-0.38,0.84-0.8,0.59-1.36
		c-0.25-0.57-0.89-0.5-1.41-0.44c-0.73,0.08-1.45,0.18-2.17,0.36c-0.71,0.04-1.35,0.26-1.96,0.63c-5.85,3.5-11.68,7.01-17.52,10.52
		c-4.79,2.87-9.59,5.74-14.37,8.63c-4.82,2.91-9.66,5.79-14.47,8.7c-4.78,2.89-9.57,5.77-14.38,8.62c-0.7,0.42-1.36,0.89-2.09,1.28
		c-1.59,0.84-1.69,1.05-1.45,2.8c0,0.65-0.44,0.77-0.96,0.85c-5.58,0.85-11.12,1.91-16.71,2.67c-0.76,0.1-1.54,0.31-2.2-0.31
		c-0.72-1.08,0.13-1.69,0.75-2.27c2.33-2.16,4.71-4.26,7.08-6.38c20.61-18.43,41.22-36.86,61.83-55.29c0.85-0.76,1.72-1.5,2.79-1.96
		C259.09,287.71,260.25,287.1,261.36,286.42z"/>
	<path class="st4" d="M296.19,369.92c-4.99,2.45-10.19,4.38-15.48,6.08c-7.28,2.34-14.69,4.05-22.35,4.48
		c-4.09,0.23-8.16,0.11-12.1-1.16c-2.56-0.82-4.93-1.97-6.35-4.44c0.02-0.44-0.25-0.77-0.42-1.13c-2.62-5.48-5.24-10.97-7.87-16.44
		c-0.2-0.94,0.35-0.48,0.61-0.28c0.79,0.6,1.65,1.05,2.53,1.47c2.44,1.17,5.07,1.46,7.7,1.82c5.15,0.71,10.33,0.52,15.49,0.28
		c4.63-0.21,9.25-0.71,13.85-1.31c3.07-0.4,6.14-0.77,9.2-1.25c3.62-0.57,7.26-1.08,10.83-1.93c0.57-0.14,1.05-0.44,1.49-0.81
		c4.25-3.56,8.35-7.29,12.35-11.12c2.77-2.65,5.57-5.25,8.2-8.04c1.95-2.07,3.9-4.15,5.74-6.33c1.89-2.24,3.79-4.47,5.47-6.87
		c2.75-3.95,5.59-7.87,6.05-12.9c0.03-0.34-0.01-1.09,0.75-0.51c2.74,5.72,5.61,11.37,8.14,17.19c0.03,0.07,0.12,0.11,0.18,0.16
		c0.84,1.99,0.59,4,0.05,5.99c-1.08,3.99-3.38,7.31-5.98,10.42c-4.96,5.92-10.91,10.72-17.26,15.06c-4.75,3.25-9.71,6.16-14.86,8.76
		c-0.36,0.18-0.74,0.33-1.11,0.5C299.35,368.21,297.73,368.99,296.19,369.92z"/>
	<path class="st5" d="M269.21,314.14c-0.62,0.28-1.26,0.53-1.73,1.05c-0.21,0.41-0.62,0.47-1.02,0.57c-0.48,0.19-0.96,0.39-1.3,0.82
		c-1.51,1.17-3.15,2.15-4.79,3.1c-3.49,2.02-6.82,4.29-10.3,6.33c-4.22,2.47-8.4,5.03-12.59,7.55c-3.99,2.39-7.97,4.8-11.95,7.19
		c-4.86,2.92-9.71,5.86-14.59,8.75c-0.56,0.33-1.12,0.67-1.62,1.08c-0.46,0.42-0.13,0.81,0.05,1.2c0.25,0.55,0.5,1.1,0.81,1.63
		c0.06,0.1,0.11,0.21,0.17,0.31c1.79,3.78,3.57,7.57,5.36,11.35c0.99,2.09,2,4.18,3,6.27c0.19,0.4,0.31,0.85,0.77,1.06
		c0.87,1.52,0.76,2.33-0.39,3.01c-1.42,0.83-3.08,0.23-3.04-1.39c-0.28-0.67-0.54-1.35-0.86-2.01c-2.63-5.5-5.26-11-7.9-16.5
		c-0.2-0.42-0.28-0.96-0.79-1.18c-0.73-0.97-1.35-1.99-1.38-3.26c-0.8-1.74-0.52-2.29,1.19-3.3c4.82-2.83,9.6-5.73,14.39-8.61
		c6.36-3.82,12.72-7.66,19.09-11.48c7.87-4.73,15.73-9.46,23.6-14.19c2.17-1.3,4.34-2.6,6.5-3.91c0.61-0.37,1.23-0.35,1.88-0.16
		c0.87,0.09,1.13,0.72,1.19,1.45c0.07,0.91-0.37,1.61-1.13,2.01C270.96,313.33,270.1,313.78,269.21,314.14z"/>
	<path class="st6" d="M208.72,350.45c8.98-5.4,17.96-10.8,26.94-16.21c9.26-5.57,18.51-11.15,27.77-16.73
		c0.56-0.34,1.15-0.62,1.72-0.93c0.35-0.03,0.61-0.41,0.89-0.31c-16.86,10.97-33.77,21.97-50.87,33.1c1.64,0.07,3.02-0.37,4.41-0.59
		c5.49-0.85,10.96-1.83,16.44-2.73c2.84-0.47,5.71-0.78,8.54-1.33c4.03-0.79,8.09-1.36,12.13-2.04c3.8-0.64,7.61-1.2,11.42-1.82
		c3.96-0.65,7.93-1.26,11.85-2.07c1.24-0.25,2.51-0.68,3.63-1.38c0.95,0.62,1.2,1.64,1.5,2.64c-0.41,1.62-1.9,1.91-3.12,2.12
		c-7.18,1.25-14.36,2.57-21.56,3.68c-2.9,0.45-5.79,0.95-8.69,1.43c-5.1,0.84-10.2,1.73-15.32,2.5c-1.93,0.29-3.86,0.63-5.79,0.97
		c-1.39,0.25-1.45,0.42-0.85,1.67c0.49,1.03,0.99,2.06,1.47,3.09c0.2,0.44,0.48,0.87,0.3,1.39c2.65,5.54,5.31,11.09,7.95,16.64
		c0.2,0.42,0.59,0.81,0.4,1.35c-0.31-0.57-0.66-1.12-0.94-1.71c-3.41-7.09-6.82-14.18-10.19-21.29c-0.39-0.83-0.77-1.13-1.72-0.96
		c-5.56,0.98-11.14,1.89-16.71,2.82c0,0-0.07,0.01-0.07,0.01C209.5,352.76,208.94,351.68,208.72,350.45z"/>
	<path class="st6" d="M284.97,340.27c-0.45-0.96-0.9-1.92-1.36-2.88c2.86-1.08,4.91-3.29,7.12-5.25
		c6.01-5.35,11.97-10.77,17.97-16.13c5.24-4.68,10.56-9.29,15.78-13.99c6.31-5.68,12.63-11.36,19.01-16.97
		c4.42-3.89,8.77-7.88,13.15-11.82c0.61-0.55,1.13-1.17,1.48-1.93c1.77,3.6,2.27,3.02-0.99,5.93c-9.17,8.2-18.34,16.41-27.54,24.59
		c-0.7,0.62-0.68,1.08-0.31,1.85c3.43,7.09,6.82,14.21,10.21,21.32c0.23,0.47,0.55,0.91,0.57,1.47c-0.41-0.21-0.47-0.65-0.64-1
		c-1.8-3.74-3.65-7.47-5.37-11.25c-1.54-3.37-3.54-6.51-5.02-9.9c-0.1-0.23-0.23-0.43-0.45-0.56c-0.64-0.14-0.97,0.37-1.35,0.7
		c-3.79,3.35-7.54,6.75-11.32,10.12c-6.65,5.92-13.24,11.88-19.89,17.79c-2.26,2.01-4.47,4.06-6.79,6c-0.94,0.78-1.9,1.55-3.07,1.98
		C285.77,340.47,285.33,340.83,284.97,340.27z"/>
	<path class="st7" d="M224.54,377.6c3.17,2.52,5.48,5.79,7.68,9.11c4.77,7.18,8.63,14.87,12.46,22.58c0.59,1.19,0.43,2.18-0.28,3.2
		c-0.81,1.15-1.86,2.05-3.03,2.81c-2.7,1.74-5.56,3.09-8.83,3.35c-2.14,0.17-2.82-0.23-3.74-2.14c-3.31-6.83-6.36-13.78-8.86-20.95
		c-1.5-4.31-2.84-8.68-3.13-13.28c-0.03-0.4,0-0.81,0.01-1.22c0.38-0.26,0.78-0.11,1.18-0.06c2.47,0.27,4.32-0.71,5.65-2.78
		C223.85,377.91,223.86,377.25,224.54,377.6z"/>
	<path class="st8" d="M205.1,351.08c0.51,1.07,1.29,2.02,1.38,3.26c-5.65,0.93-11.3,1.87-16.95,2.8c-0.4,0.07-0.81,0.08-1.21,0.14
		c-0.97,0.13-1.64-0.18-1.99-1.16c-0.26-0.73-0.63-1.41-0.95-2.11c1.76,0.3,3.49-0.11,5.19-0.4c4.74-0.83,9.48-1.69,14.26-2.28
		C204.93,351.3,205.01,351.16,205.1,351.08z"/>
	<path class="st9" d="M224.54,377.6c-0.82,0.31-0.81,1.24-1.36,1.81c-1.82,1.89-3.92,2.34-6.36,1.65c-2.7-1.2-3.14-4.27-1.59-6.05
		c0.39,1.03,0.72,2.12,2.16,2.03c1.44-0.09,2.7-0.6,3.57-1.79c0.6-0.81,0.73-1.64-0.22-2.34c-0.16-0.12-0.29-0.29-0.23-0.52
		c2.68,0.19,4.08,1.75,3.96,4.39C224.46,377.04,224.52,377.32,224.54,377.6z"/>
	<path class="st10" d="M220.51,372.38c1.78,1.26,1.62,3.08-0.4,4.09c-0.86,0.43-1.67,0.98-2.73,0.9c-1.73-0.13-2.16-0.56-2.15-2.36
		c0.12-0.45,0.43-0.74,0.8-0.98c1.08,1.6,1.51,1.79,2.71,1.21c0.88-0.43,1.41-0.99,0.8-2.02c-0.15-0.25-0.25-0.52-0.07-0.81
		C219.81,372.26,220.16,372.33,220.51,372.38z"/>
	<path class="st11" d="M328.47,302.89c0.5,0.18,0.55,0.69,0.73,1.07c3.41,7.1,6.81,14.21,10.21,21.31c0.19,0.4,0.43,0.78,0.65,1.18
		c0.05,0.14,0.09,0.28,0.14,0.41c-0.54-0.2-0.6-0.74-0.8-1.16c-2.63-5.47-5.25-10.94-7.87-16.41c-0.34-0.09-0.55-0.35-0.7-0.63
		c-0.81-1.54-1.55-3.11-2.26-4.7C328.42,303.62,328.43,303.25,328.47,302.89z"/>
	<path class="st12" d="M296.19,369.92c1.46-1.1,3.08-1.88,4.85-2.32C299.46,368.46,297.85,369.23,296.19,369.92z"/>
	<path class="st13" d="M261.36,286.42c-1.05,0.82-2.16,1.51-3.52,1.69C258.95,287.41,260.13,286.85,261.36,286.42z"/>
	<path class="st14" d="M269.21,314.14c0.71-0.45,1.42-0.91,2.14-1.35c1.6-0.98,1.74-2.05,0.41-3.37c0.82-0.49,1.74-0.57,2.63-0.49
		c1.26,0.11,1.61,1.04,0.73,2c-0.95,1.04-2.08,1.92-3.43,2.35C270.85,313.55,270.17,314.28,269.21,314.14z"/>
	<path class="st6" d="M266.46,315.76c0.34-0.19,0.68-0.38,1.02-0.57c0.12,0.03,0.43,0,0.31,0.09
		C267.42,315.57,267.01,315.9,266.46,315.76z"/>
	<path class="st4" d="M328.47,302.89c1.02,2.13,2.04,4.27,3.06,6.4c-0.19,2.11-0.67,4.13-1.48,6.1c-0.67,1.63-1.77,3-2.56,4.55
		c-0.94,1.86-2.36,3.38-3.5,5.11c-0.97,1.48-2.19,2.8-3.41,4.1c-1.44,1.53-2.71,3.2-4.16,4.72c-1.77,1.85-3.53,3.73-5.32,5.56
		c-1.91,1.96-3.89,3.86-5.93,5.7c-2.28,2.06-4.42,4.27-6.83,6.19c-1.39,1.1-2.72,2.32-3.98,3.56c-1.31,1.29-2.85,1.71-4.47,1.97
		c-3.31,0.54-6.6,1.23-9.94,1.6c-2.77,0.31-5.51,0.92-8.29,1.18c-2.24,0.21-4.47,0.51-6.72,0.7c-2.6,0.22-5.21,0.45-7.82,0.62
		c-2.74,0.17-5.49,0.36-8.22,0.22c-3.47-0.17-6.95-0.48-10.36-1.08c-2.54-0.45-4.98-1.43-6.99-3.2c-0.83-1.73-1.67-3.46-2.48-5.19
		c-0.28-0.59-0.55-0.83,0.58-1.08c3.81-0.84,7.69-1.25,11.52-1.97c5.21-0.98,10.48-1.69,15.72-2.56c5.32-0.88,10.61-1.9,15.94-2.69
		c3.03-0.45,6.02-1.13,9.06-1.52c1.12-0.14,2.24-0.71,3.08-1.61c1.53-0.06,2.64-1.01,3.69-1.92c3.6-3.11,7.14-6.29,10.7-9.45
		c5.17-4.6,10.32-9.2,15.48-13.81C319.38,311.03,323.92,306.96,328.47,302.89z"/>
	<path class="st15" d="M215.75,372.54c-2.92-6.09-5.83-12.19-8.75-18.28c0.04-0.02,0.07-0.04,0.11-0.05
		c2.91,6.09,5.83,12.17,8.74,18.26C215.81,372.49,215.78,372.52,215.75,372.54z"/>
	<path class="st16" d="M208.72,350.45c0.52,1.1,1.03,2.19,1.55,3.29C209.32,352.84,208.77,351.76,208.72,350.45z"/>
	<path class="st5" d="M241.1,413.15c-2.73,2.2-5.7,3.7-9.34,3.48c-0.75-0.05-1.16-0.39-1.47-1.05c-1.68-3.52-3.21-7.11-4.7-10.72
		c-1.39-3.36-2.69-6.75-3.89-10.17c-1.17-3.32-2.01-6.75-2.66-10.22c-0.15-0.81,0.02-1.34,1.04-1.49c1.51-0.22,2.84-0.93,4.03-1.89
		c1.58,0.87,2.36,2.44,3.3,3.84c4.34,6.41,7.63,13.39,10.88,20.38c0.94,2.03,1.64,4.17,2.67,6.18
		C241.23,412.01,241.29,412.58,241.1,413.15z"/>
	<path class="st17" d="M241.1,413.15c-0.73-2.59-2.04-4.95-3.07-7.42c-1.51-3.61-3.26-7.12-5.05-10.6c-1.55-3.02-3.32-5.93-5.16-8.8
		c-1.16-1.82-2.48-3.5-3.71-5.25c0.33-0.47,0.65-0.55,1.07-0.07c1.65,1.89,3.33,3.77,4.7,5.88c1.61,2.48,3.21,4.96,4.82,7.44
		c0.84,1.29,1.47,2.71,2.25,4.04c1.64,2.81,3.18,5.68,4.49,8.67c0.18,0.41,0.42,0.77,0.7,1.14c1.22,1.57,1.14,2.8-0.23,4.25
		C241.67,412.69,241.38,412.91,241.1,413.15z"/>
</g>
</svg>
